<svg width="23" height="23" viewBox="0 0 23 23" fill="none" xmlns="http://www.w3.org/2000/svg">
<path fill-rule="evenodd" clip-rule="evenodd" d="M18.9483 5.41843C18.9483 6.17358 18.3361 6.7856 17.5812 6.7856C16.8262 6.7856 16.214 6.17358 16.214 5.41843C16.214 4.66328 16.8262 4.05126 17.5812 4.05126C18.3363 4.05126 18.9483 4.66328 18.9483 5.41843ZM11.4995 15.2977C9.40215 15.2977 7.70191 13.5974 7.70191 11.5C7.70191 9.40264 9.40215 7.70239 11.4995 7.70239C13.5969 7.70239 15.2972 9.40264 15.2972 11.5C15.2972 13.5974 13.5969 15.2977 11.4995 15.2977ZM11.4995 5.6495C8.26836 5.6495 5.64901 8.26884 5.64901 11.5C5.64901 14.7312 8.26836 17.3506 11.4995 17.3506C14.7307 17.3506 17.3501 14.7312 17.3501 11.5C17.3501 8.26884 14.7307 5.6495 11.4995 5.6495ZM11.4995 2.15983C14.5417 2.15983 14.902 2.1714 16.1033 2.22623C17.2141 2.27696 17.8174 2.46246 18.2188 2.61858C18.7505 2.82526 19.1301 3.07217 19.5288 3.47092C19.9276 3.86951 20.1745 4.24904 20.3812 4.78095C20.5371 5.18238 20.7228 5.78568 20.7735 6.89651C20.8284 8.09795 20.8399 8.45825 20.8399 11.5004C20.8399 14.5425 20.8284 14.9028 20.7735 16.1041C20.7228 17.2149 20.5373 17.8182 20.3812 18.2197C20.1745 18.7514 19.9276 19.1309 19.5288 19.5297C19.1303 19.9284 18.7507 20.1753 18.2188 20.382C17.8174 20.538 17.2141 20.7236 16.1033 20.7744C14.902 20.8292 14.5417 20.8408 11.4995 20.8408C8.45723 20.8408 8.09693 20.8292 6.89567 20.7744C5.78484 20.7236 5.18154 20.5381 4.78011 20.382C4.24837 20.1753 3.86884 19.9284 3.47008 19.5297C3.0715 19.1311 2.82441 18.7516 2.61773 18.2197C2.46179 17.8182 2.27612 17.2149 2.22538 16.1041C2.17055 14.9027 2.15898 14.5423 2.15898 11.5004C2.15898 8.45825 2.17055 8.09795 2.22538 6.89651C2.27612 5.78568 2.46161 5.18238 2.61773 4.78095C2.82441 4.24922 3.07132 3.86968 3.47008 3.47092C3.86866 3.07217 4.24819 2.82526 4.78011 2.61858C5.18154 2.46264 5.78484 2.27696 6.89567 2.22623C8.0971 2.1714 8.45741 2.15983 11.4995 2.15983ZM11.4995 0.106934C8.40543 0.106934 8.01735 0.120107 6.80221 0.17547C5.58955 0.230834 4.76124 0.423448 4.03671 0.705071C3.28743 0.99613 2.65209 1.38581 2.01871 2.01919C1.38532 2.65258 0.995641 3.28792 0.704583 4.0372C0.42296 4.76191 0.230345 5.59004 0.174982 6.80269C0.119619 8.01784 0.106445 8.40592 0.106445 11.5C0.106445 14.5942 0.119619 14.9822 0.174982 16.1974C0.230345 17.41 0.42296 18.2382 0.704583 18.9629C0.995641 19.7121 1.38532 20.3475 2.01871 20.9809C2.65209 21.6143 3.28743 22.0038 4.03671 22.295C4.76142 22.5766 5.58955 22.7692 6.80221 22.8246C8.01735 22.88 8.40543 22.8931 11.4995 22.8931C14.5937 22.8931 14.9817 22.88 16.1969 22.8246C17.4095 22.7692 18.2377 22.5766 18.9624 22.295C19.7117 22.0038 20.347 21.6143 20.9804 20.9809C21.6138 20.3475 22.0033 19.7121 22.2945 18.9629C22.5761 18.2382 22.7687 17.41 22.8241 16.1974C22.8795 14.9822 22.8926 14.5942 22.8926 11.5C22.8926 8.40592 22.8795 8.01784 22.8241 6.80269C22.7687 5.59004 22.5761 4.76191 22.2945 4.0372C22.0033 3.28792 21.6138 2.65258 20.9804 2.01919C20.347 1.38581 19.7117 0.996308 18.9624 0.705071C18.2377 0.423448 17.4095 0.230834 16.1969 0.17547C14.9817 0.120107 14.5937 0.106934 11.4995 0.106934Z" fill="#060416"/>
</svg>
