<svg width="25" height="18" viewBox="0 0 25 18" fill="none" xmlns="http://www.w3.org/2000/svg">
<path fill-rule="evenodd" clip-rule="evenodd" d="M24.75 3.88267C24.75 3.88267 24.5055 2.11912 23.7563 1.34266C22.8055 0.32301 21.7398 0.318245 21.2516 0.259083C17.7531 7.15256e-08 12.5055 0 12.5055 0L12.4945 0C12.4945 0 7.24687 7.15256e-08 3.74844 0.259083C3.25937 0.318245 2.19453 0.32301 1.24297 1.34266C0.49375 2.11932 0.25 3.88267 0.25 3.88267C0.25 3.88267 0 5.95414 0 8.02462L0 9.96645C0 12.0377 0.25 14.1084 0.25 14.1084C0.25 14.1084 0.49375 15.8719 1.24297 16.6484C2.19453 17.6681 3.44375 17.6361 4 17.7425C6 17.9393 12.5 18 12.5 18C12.5 18 17.7531 17.9921 21.2516 17.733C21.7398 17.673 22.8055 17.6683 23.7563 16.6486C24.5055 15.8719 24.75 14.1086 24.75 14.1086C24.75 14.1086 25 12.0379 25 9.96645V8.02462C25 5.95414 24.75 3.88267 24.75 3.88267ZM9.91875 12.3194L9.91797 5.12885L16.6727 8.73655L9.91875 12.3194Z" fill="#FF0000"/>
</svg>
