<svg width="165" height="62" viewBox="0 0 165 62" fill="none" xmlns="http://www.w3.org/2000/svg">
<path d="M0 20V40L21 21.5V0L0 20Z" fill="white"/>
<path d="M42 22V40L21 21H42V22Z" fill="white"/>
<path d="M42 40L21 59.0526L21 20.9474L42 40Z" fill="#FEB938"/>
<path d="M9.61651e-07 40L21 59.0526L21 20.9474L9.61651e-07 40Z" fill="#FF970A"/>
<path d="M57.7184 26.3288L57.7086 29.741L62.8827 29.7558C65.0643 29.7621 66.7501 30.317 67.9402 31.4205C69.1491 32.5054 69.7508 33.9802 69.7455 35.8447C69.7398 37.8212 69.0921 39.3482 67.8025 40.426C66.5128 41.5037 64.7213 42.0393 62.4279 42.0327L53.3662 42.0067L53.4225 22.4289L68.4414 22.472L68.4303 26.3596L57.7184 26.3288ZM62.4249 33.3345L57.6983 33.3209L57.6845 38.1314L62.4391 38.1451C64.4342 38.1508 65.4341 37.324 65.4388 35.6645C65.4433 34.117 64.4387 33.3403 62.4249 33.3345ZM73.2772 42.0639L73.3335 22.4861L81.3324 22.5091C83.6445 22.5157 85.4699 23.1456 86.8088 24.3987C88.1477 25.6518 88.8142 27.3039 88.8083 29.3549C88.802 31.5364 88.0513 33.231 86.5562 34.4387C85.0611 35.6277 83.1669 36.2189 80.8735 36.2123L77.6012 36.2029L77.5843 42.0763L73.2772 42.0639ZM77.6122 32.3713L81.0244 32.3811C82.0871 32.3841 82.9177 32.1068 83.5159 31.5492C84.1329 30.9916 84.4426 30.2653 84.4452 29.3703C84.4479 28.4194 84.1423 27.6913 83.5285 27.1861C82.9147 26.6623 82.0577 26.3988 80.9576 26.3956L77.6294 26.3861L77.6122 32.3713ZM108.88 22.5882L108.824 42.1661L104.573 42.1538L104.61 29.3164L96.0146 42.1292L91.9592 42.1176L92.0154 22.5398L96.2666 22.552L96.2297 35.3894L104.881 22.5767L108.88 22.5882ZM111.455 46.257L111.478 38.2861L113.324 38.2914C114.093 36.5222 114.649 34.6499 114.99 32.6745C115.331 30.699 115.507 28.1078 115.516 24.9007L115.522 22.6073L129.758 22.6482L129.713 38.3385L132.062 38.3452L131.48 46.3146L127.872 46.3042L127.884 42.2208L115.634 42.1856L115.342 46.2682L111.455 46.257ZM125.44 26.5235L119.65 26.5068L119.645 28.4926C119.634 32.1844 119.037 35.455 117.855 38.3044L125.406 38.3261L125.44 26.5235ZM150.497 42.2858L146.218 42.2735L146.233 37.0714L143.64 34.2671L138.107 42.2502L132.961 42.2354L140.74 31.1543L133.297 22.6584L138.415 22.6731L146.248 31.8414L146.274 22.6957L150.554 22.708L150.527 31.8536L158.413 22.7306L163.531 22.7453L156.039 31.1982L163.754 42.3239L158.608 42.3091L153.093 34.2943L150.512 37.0837L150.497 42.2858Z" fill="white"/>
<path d="M51.8815 56.0023L51.8958 51.046L52.634 51.0481L52.6227 54.9691L55.5771 51.0566L56.2961 51.0586L56.2819 56.015L55.5437 56.0129L55.5549 52.0919L52.591 56.0044L51.8815 56.0023ZM57.9294 56.0197L57.9437 51.0634L58.6818 51.0655L58.6757 53.2033L61.5325 53.2116L61.5387 51.0737L62.2769 51.0758L62.2626 56.0322L61.5244 56.0301L61.5307 53.8635L58.6738 53.8552L58.6676 56.0218L57.9294 56.0197ZM63.9118 56.0369L63.926 51.0806L66.3227 51.0875C66.8148 51.0889 67.2075 51.2019 67.5009 51.4264C67.7942 51.6509 67.9404 51.9517 67.9393 52.3288C67.9378 52.8593 67.6619 53.2388 67.1116 53.4673C67.8396 53.6675 68.2027 54.0776 68.2009 54.6975C68.1997 55.1129 68.0358 55.4416 67.7092 55.6835C67.3825 55.9255 66.9444 56.0456 66.3947 56.044L63.9118 56.0369ZM64.6518 55.4063L66.3007 55.411C66.6522 55.4121 66.9304 55.3394 67.1354 55.193C67.3403 55.0465 67.4431 54.8423 67.4439 54.5803C67.4446 54.3374 67.3365 54.1486 67.1196 54.0137C66.909 53.8789 66.6057 53.8109 66.2094 53.8098L64.6564 53.8053L64.6518 55.4063ZM64.6581 53.2109L66.1824 53.2153C66.4891 53.2162 66.7322 53.1498 66.9115 53.0161C67.0973 52.876 67.1905 52.6782 67.1912 52.4225C67.1919 52.2116 67.1061 52.042 66.9339 51.9137C66.7617 51.7854 66.519 51.7208 66.2058 51.7199L64.6624 51.7154L64.6581 53.2109ZM71.6953 56.1743C70.9986 56.1723 70.4113 55.931 69.9334 55.4503C69.4618 54.9632 69.2271 54.3393 69.2293 53.5788C69.2314 52.8566 69.46 52.2469 69.9152 51.7497C70.3705 51.2461 70.9368 50.9953 71.6143 50.9972C72.3237 50.9993 72.8854 51.2501 73.2994 51.7498C73.7134 52.2495 73.9193 52.8765 73.9171 53.6306C73.9168 53.7265 73.9134 53.8128 73.9068 53.8894L69.9762 53.8781C70.0259 54.3832 70.2133 54.7864 70.5384 55.0877C70.8699 55.3826 71.2625 55.5308 71.7163 55.5321C72.3106 55.5338 72.8322 55.302 73.2809 54.8367L73.7399 55.2503C73.1821 55.8686 72.5005 56.1766 71.6953 56.1743ZM69.9779 53.2838L73.1703 53.2929C73.127 52.8135 72.9683 52.4168 72.6944 52.1028C72.4269 51.7825 72.0599 51.6216 71.5933 51.6203C71.1715 51.6191 70.8099 51.7746 70.5087 52.0869C70.2074 52.3992 70.0305 52.7982 69.9779 53.2838ZM77.4358 56.1908C76.7199 56.1888 76.1167 55.9346 75.626 55.4283C75.1418 54.9156 74.9007 54.3045 74.9027 53.5951C74.9048 52.8857 75.1494 52.2792 75.6365 51.7757C76.1301 51.2658 76.7348 51.0119 77.4506 51.014C78.2176 51.0162 78.8782 51.3121 79.4326 51.9017L78.9614 52.3988C78.5026 51.9118 77.9952 51.6675 77.4392 51.6659C76.9407 51.6644 76.5183 51.8518 76.1721 52.2278C75.8323 52.5976 75.6616 53.054 75.6601 53.5973C75.6585 54.1341 75.8298 54.5916 76.1738 54.9697C76.5243 55.3414 76.9583 55.528 77.476 55.5294C78.0065 55.531 78.5057 55.2832 78.9737 54.786L79.4613 55.238C78.8843 55.8754 78.2091 56.193 77.4358 56.1908ZM81.8775 56.0885L81.8899 51.7841L80.1163 51.779L80.1182 51.1271L84.4131 51.1395L84.4112 51.7914L82.6376 51.7863L82.6253 56.0907L81.8775 56.0885ZM85.4725 56.0989L85.4868 51.1425L86.225 51.1447L86.2137 55.0656L89.1681 51.1531L89.8871 51.1552L89.8728 56.1115L89.1347 56.1094L89.1459 52.1884L86.1819 56.1009L85.4725 56.0989ZM95.7925 57.3652L95.7961 56.1286L91.5204 56.1163L91.5347 51.1599L92.2728 51.162L92.2605 55.4665L95.0406 55.4745L95.053 51.17L95.7912 51.1722L95.7788 55.4766L96.5266 55.4787L96.4061 57.367L95.7925 57.3652ZM97.5402 56.1336L97.5544 51.1772L98.2926 51.1793L98.2814 55.1003L101.236 51.1878L101.955 51.1899L101.941 56.1462L101.202 56.1441L101.214 52.2231L98.2496 56.1356L97.5402 56.1336ZM107.703 55.5205C107.203 56.0239 106.585 56.2746 105.85 56.2725C105.115 56.2704 104.502 56.0162 104.012 55.5098C103.527 55.0036 103.286 54.3925 103.288 53.6767C103.29 52.9673 103.538 52.3608 104.032 51.8573C104.532 51.3475 105.149 51.0936 105.884 51.0957C106.619 51.0978 107.232 51.352 107.723 51.8584C108.213 52.3647 108.458 52.9757 108.456 53.6915C108.454 54.401 108.203 55.0106 107.703 55.5205ZM105.871 55.6111C106.402 55.6126 106.837 55.4285 107.177 55.0588C107.523 54.6891 107.697 54.2326 107.698 53.6894C107.7 53.1525 107.522 52.695 107.165 52.3169C106.815 51.9388 106.381 51.749 105.863 51.7476C105.333 51.746 104.898 51.9333 104.558 52.3094C104.218 52.6791 104.047 53.1356 104.046 53.6789C104.044 54.2157 104.219 54.6732 104.569 55.0513C104.92 55.423 105.354 55.6096 105.871 55.6111ZM109.786 56.1688L109.8 51.2124L110.538 51.2145L110.532 53.3524L113.389 53.3606L113.395 51.2228L114.133 51.2249L114.119 56.1812L113.381 56.1791L113.387 54.0125L110.53 54.0043L110.524 56.1709L109.786 56.1688ZM115.768 56.186L115.782 51.2296L116.521 51.2317L116.514 53.3696L119.371 53.3778L119.377 51.2399L120.116 51.2421L120.101 56.1984L119.363 56.1963L119.369 54.0297L116.512 54.0215L116.506 56.1881L115.768 56.186ZM121.75 56.2031L121.765 51.2468L122.503 51.2489L122.498 53.1088L123.82 53.1126C124.396 53.1142 124.865 53.2402 125.229 53.4905C125.592 53.7344 125.773 54.1056 125.772 54.6041C125.77 55.0962 125.6 55.4888 125.26 55.7818C124.921 56.0685 124.467 56.211 123.898 56.2093L121.75 56.2031ZM122.49 55.5534L123.833 55.5572C124.21 55.5583 124.501 55.4793 124.706 55.3201C124.917 55.1609 125.023 54.9279 125.024 54.6211C125.025 54.3399 124.917 54.1255 124.7 53.9779C124.49 53.8239 124.193 53.7464 123.809 53.7453L122.496 53.7415L122.49 55.5534ZM126.659 56.2173L126.673 51.2609L127.411 51.263L127.397 56.2194L126.659 56.2173ZM129.043 56.2241L129.058 51.2678L129.796 51.2699L129.785 55.1909L132.739 51.2783L133.458 51.2804L133.444 56.2368L132.706 56.2346L132.717 52.3137L129.753 56.2261L129.043 56.2241ZM132.128 50.2412C131.885 50.4578 131.587 50.5656 131.236 50.5646C130.884 50.5636 130.584 50.4541 130.336 50.2361C130.093 50.0181 129.944 49.7364 129.888 49.3911L130.396 49.2871C130.522 49.7349 130.803 49.9594 131.238 49.9606C131.672 49.9619 131.954 49.739 132.083 49.292L132.591 49.3989C132.532 49.7439 132.378 50.0246 132.128 50.2412ZM140.943 57.7922L140.948 55.8557C140.551 56.1933 140.138 56.3614 139.71 56.3602C139.109 56.3585 138.624 56.127 138.255 55.6658C137.885 55.1982 137.702 54.5617 137.704 53.7564C137.706 52.9639 137.894 52.3381 138.266 51.879C138.638 51.4199 139.124 51.1912 139.725 51.193C140.153 51.1942 140.565 51.3743 140.96 51.7334L140.966 49.5476L141.714 49.5498L141.708 51.7355C142.105 51.3788 142.518 51.201 142.946 51.2022C143.553 51.204 144.041 51.4387 144.411 51.9063C144.78 52.3675 144.964 52.9976 144.961 53.7965C144.959 54.589 144.769 55.2179 144.39 55.6834C144.018 56.1425 143.532 56.3712 142.931 56.3695C142.656 56.3687 142.43 56.3265 142.251 56.2429C142.078 56.1529 141.894 56.0246 141.696 55.8578L141.69 57.7943L140.943 57.7922ZM139.865 55.7088C140.281 55.71 140.642 55.548 140.95 55.223L140.958 52.3469C140.652 52.0201 140.292 51.8561 139.876 51.8549C139.416 51.8536 139.067 52.0251 138.83 52.3696C138.592 52.714 138.473 53.1898 138.471 53.797C138.467 55.0688 138.932 55.7061 139.865 55.7088ZM142.789 55.7172C143.722 55.7198 144.191 55.0789 144.194 53.7943C144.196 53.1935 144.079 52.7234 143.844 52.384C143.608 52.0382 143.26 51.8646 142.8 51.8633C142.385 51.8621 142.02 52.024 141.706 52.3491L141.698 55.2251C142.01 55.5519 142.374 55.716 142.789 55.7172ZM150.45 55.6433C149.95 56.1468 149.332 56.3975 148.597 56.3953C147.862 56.3932 147.249 56.139 146.759 55.6327C146.275 55.1264 146.033 54.5154 146.035 53.7995C146.038 53.0901 146.285 52.4837 146.779 51.9802C147.279 51.4703 147.896 51.2165 148.631 51.2186C149.366 51.2207 149.979 51.4749 150.47 51.9812C150.96 52.4875 151.205 53.0986 151.203 53.8144C151.201 54.5238 150.95 55.1335 150.45 55.6433ZM148.618 55.7339C149.149 55.7354 149.584 55.5513 149.924 55.1816C150.27 54.8119 150.444 54.3555 150.445 53.8122C150.447 53.2754 150.269 52.8179 149.912 52.4398C149.562 52.0617 149.128 51.8719 148.61 51.8704C148.08 51.8689 147.645 52.0562 147.305 52.4323C146.965 52.802 146.794 53.2585 146.793 53.8017C146.791 54.3386 146.966 54.7961 147.316 55.1741C147.667 55.5458 148.101 55.7324 148.618 55.7339ZM152.533 56.2916L152.547 51.3353L153.285 51.3374L153.279 53.4752L156.136 53.4835L156.142 51.3456L156.88 51.3477L156.866 56.3041L156.128 56.3019L156.134 54.1353L153.277 54.1271L153.271 56.2937L152.533 56.2916ZM157.783 57.5434L157.788 55.6548L158.325 55.6564C158.769 54.846 158.992 53.6994 158.997 52.2166L158.999 51.3538L162.527 51.364L162.515 55.6684L163.262 55.6706L163.142 57.5588L162.528 57.557L162.532 56.3204L158.525 56.3088L158.387 57.5451L157.783 57.5434ZM159.111 55.6586L161.777 55.6663L161.787 52.0137L159.707 52.0078L159.705 52.698C159.701 53.9443 159.503 54.9312 159.111 55.6586Z" fill="white"/>
</svg>
