<svg version="1.1" id="Layer_1" xmlns="http://www.w3.org/2000/svg" x="0" y="0" viewBox="0 0 21 21" xml:space="preserve"><style>.st0{fill:#4c4c4c}</style><path class="st0" d="M19.9 13.8h-3.1c-.8 0-1.5.3-2.1.9-.6.6-.9 1.3-.9 2.1v3.1c0 .5.4.9.9.9s.9-.4.9-.9v-3.1c0-.3.1-.6.3-.8.2-.2.5-.3.8-.3h3.1c.5 0 .9-.4.9-.9s-.3-1-.8-1zM4.3 13.8H1.1c-.5 0-.9.4-.9.9s.4.9.9.9h3.1c.3 0 .6.1.8.3.2.2.3.5.3.8v3.1c0 .5.4.9.9.9s.9-.4.9-.9v-3.1c0-.8-.3-1.5-.9-2.1-.4-.5-1.1-.8-1.9-.8zM16.7 7.2h3.1c.5 0 .9-.4.9-.9s-.4-.9-.9-.9h-3.1c-.3 0-.6-.1-.8-.3-.2-.2-.3-.5-.3-.8V1.1c0-.5-.4-.9-.9-.9s-.9.4-.9.9v3.1c0 .8.3 1.5.9 2.1.5.6 1.2.9 2 .9zM6.3.2c-.5 0-.9.4-.9.9v3.1c0 .3-.1.6-.3.8-.2.3-.5.4-.8.4H1.1c-.5 0-.9.4-.9.9s.4.9.9.9h3.1c.8 0 1.5-.3 2.1-.9.6-.6.9-1.3.9-2.1V1.1c0-.5-.4-.9-.9-.9z"/></svg>