<svg version="1.1" id="Layer_1" xmlns="http://www.w3.org/2000/svg" x="0" y="0" viewBox="0 0 23 23" xml:space="preserve"><style>.st0{fill:#4c4c4c}</style><path class="st0" d="M11.3.1C5.1.1.1 5.1.1 11.3c0 6.2 5 11.2 11.2 11.2s11.2-5 11.2-11.2c0-6.2-5-11.2-11.2-11.2zm0 20.6c-5.2 0-9.4-4.2-9.4-9.4s4.2-9.4 9.4-9.4 9.4 4.2 9.4 9.4-4.2 9.4-9.4 9.4z"/><path class="st0" d="M9.7 15.9c-.2 0-.5-.1-.7-.2-.5-.2-.7-.7-.7-1.2V8.1c0-.5.3-1 .7-1.2.5-.2 1-.2 1.4.1l4.8 3.2c.4.3.6.7.6 1.2s-.2.9-.6 1.2l-4.8 3.2c-.1 0-.4.1-.7.1zm.4-7v4.9l3.7-2.5-3.7-2.4z"/></svg>