<svg version="1.1" id="Layer_1" xmlns="http://www.w3.org/2000/svg" x="0" y="0" viewBox="0 0 28 21" xml:space="preserve"><style>.st0{fill:#4c4c4c}</style><path class="st0" d="M12.5.8c-.8-.3-1.6-.2-2.2.3L6 4.9c-.1 0-.1.1-.2.1H2.2C1 4.9.1 5.9.1 7v6.3c0 1.1.9 2.1 2.1 2.1h3.6c.1 0 .1 0 .2.1l4.3 3.7c.4.3.9.5 1.4.5.3 0 .6-.1.9-.2.8-.3 1.2-1.1 1.2-1.9v-15c-.1-.8-.6-1.5-1.3-1.8zm-.6 16.9c0 .2-.1.2-.2.3-.1 0-.2.1-.3 0l-4.3-3.7c-.4-.3-.9-.5-1.4-.5H2.2c-.2 0-.3-.1-.3-.3V7c0-.2.1-.3.3-.3h3.6c.5 0 1-.2 1.4-.5l4.3-3.7c.1-.1.3-.1.3 0 .1 0 .2.1.2.3v14.9zM23.6 10.2l3.6-3.6c.3-.3.3-.9 0-1.3-.3-.3-.9-.3-1.3 0l-3.6 3.6-3.6-3.6c-.3-.3-.9-.3-1.3 0-.3.3-.3.9 0 1.3l3.6 3.6-3.6 3.6c-.3.3-.3.9 0 1.3.2.2.4.3.6.3s.5-.1.6-.3l3.6-3.6 3.6 3.6c.2.2.4.3.6.3s.5-.1.6-.3c.3-.3.3-.9 0-1.3l-3.4-3.6z"/></svg>