<svg width="25" height="15" viewBox="0 0 25 15" fill="none" xmlns="http://www.w3.org/2000/svg">
<path d="M13.6458 14.1845C13.9631 14.122 14.5341 13.997 14.5341 13.2469C14.5341 13.2469 14.4707 11.3717 15.3589 11.1217C16.2472 10.8717 17.3893 12.9344 18.5948 13.7469C19.483 14.3095 20.181 14.247 20.181 14.247L23.4168 14.1845C23.4168 14.1845 25.0664 14.0595 24.3051 12.7469C24.2416 12.6218 23.734 11.8093 21.8306 10.1216C19.8637 8.24645 20.181 8.55898 22.5285 5.37119C23.9878 3.43352 24.6223 2.24591 24.4319 1.80838C24.1782 1.37084 23.163 1.43334 23.163 1.43334H19.5465C19.1658 1.43334 18.9754 1.49585 18.7851 1.80838C18.7851 1.80838 18.2141 3.37102 17.4527 4.62113C15.8665 7.30887 15.232 7.43388 14.9148 7.24636C14.3438 6.93383 14.4707 5.74623 14.4707 4.93366C14.4707 2.1209 14.9148 1.12081 13.6458 0.870791C12.821 0.74578 9.90243 0.620769 9.01416 1.05831C8.57002 1.30833 8.31623 1.74587 8.50658 1.80838C8.69692 1.80838 9.26795 1.87088 9.58519 2.24591C10.0928 3.05849 10.1562 6.93383 9.45829 7.30887C8.50658 7.99643 6.09556 3.43352 5.52453 1.93339C5.39764 1.55835 5.20729 1.49585 4.76316 1.37084H1.27354C0.892851 1.37084 0.321822 1.43334 0.575613 2.18341C2.2887 5.68372 5.84177 14.247 12.25 14.1845H13.6458Z" fill="#060416"/>
</svg>
